<svg width="260" height="84" viewBox="0 0 260 84" fill="none" xmlns="http://www.w3.org/2000/svg">
  <rect width="260" height="84" rx="12" fill="white"/>
  <g fill="#005BAA">
    <path d="M14 22h54v11H27v8h33v11H27v10h41v11H14V22z"/>
    <path d="M76 22h13v51H76V22z"/>
    <path d="M97 22h36c11 0 18 6 18 15 0 7-4 11-10 13l12 23h-14l-10-20h-19v20H97V22zm33 21c5 0 8-2 8-6s-3-5-8-5h-20v11h20z"/>
    <path d="M156 22h50v11h-37v9h29v11h-29v20h-13V22z"/>
    <path d="M210 22h42v11h-29v9h24v11h-24v9h30v11h-43V22z"/>
  </g>
  <text x="130" y="79" text-anchor="middle" font-family="Arial, Helvetica, sans-serif" font-size="12" font-weight="700" letter-spacing="4" fill="#003D73">AUTOMATION</text>
</svg>
